Genre:Comedy
Language:English
IMDb:http://www.imdb.com/title/tt1307065/
Source:1080p.BluRay.x264-KaKa


General
Complete name :Love.At.First.Hiccup.2009.720p.BRRip.H264.Feel-Free
Format : MPEG-4
Format profile : Base Media
Codec ID : mp42
File size : 1.36 GiB
Duration : 1h 29mn
Overall bit rate : 2 165 Kbps
Video #1
Codec ID : avc1
Codec ID/Info : Advanced Video Coding
Duration : 1h 29mn
Bit rate mode : Variable
Bit rate : 1 686 Kbps
Width : 1 280 pixels
Height : 720 pixels
Display aspect ratio : 16:9
Frame rate mode : Constant
Frame rate : 23.976 fps
Resolution : 24 bits
Colorimetry : 4:2:0
Scan type : Progressive
Bits/(Pixel*Frame) : 0.076
Stream size : 1.06 GiB (78%)
Audio #2
ID : 2
Format : AAC
Format/Info : Advanced Audio Codec
Format version : Version 4
Format profile : LC
Format settings, SBR : No
Codec ID : 40
Duration : 1h 29mn
Bit rate mode : Constant
Bit rate : 475 Kbps
Nominal bit rate : 480 Kbps
Channel(s) : 6 channels
Channel positions : Front: L C R, Rear: L R, LFE
Sampling rate : 48.0 KHz
Resolution : 16 bits
Stream size : 305 MiB (22%)
Plot:
A high school romantic comedy about freshman Victor who has contracted a case of Anya-itis, (acute and incurable love passion for high school senior Anja.) And why shouldn't he?


screens
 
http://rapidhdd.com/images/612229vlcsnap-2010-11-22-07h49m54s133.png 
http://www.rapidhdd.com/images/647003vlcsnap-2010-11-22-07h50m33s9.png 
http://www.rapidhdd.com/images/669300vlcsnap-2010-11-22-07h50m46s155.png 
http://www.rapidhdd.com/images/921970vlcsnap-2010-11-22-07h51m21s240.png 
http://www.rapidhdd.com/images/619790vlcsnap-2010-11-22-07h51m58s103.png
